<?xml version="1.0" encoding="UTF-8" standalone="no"?>
<!-- Created with Inkscape (http://www.inkscape.org/) -->

<svg
   width="90.119179mm"
   height="24.246719mm"
   viewBox="0 0 90.119179 24.246719"
   version="1.1"
   id="svg5"
   xml:space="preserve"
   inkscape:version="1.2.2 (732a01da63, 2022-12-09)"
   sodipodi:docname="logo.svg"
   xmlns:inkscape="http://www.inkscape.org/namespaces/inkscape"
   xmlns:sodipodi="http://sodipodi.sourceforge.net/DTD/sodipodi-0.dtd"
   xmlns="http://www.w3.org/2000/svg"
   xmlns:svg="http://www.w3.org/2000/svg"><sodipodi:namedview
     id="namedview7"
     pagecolor="#ffffff"
     bordercolor="#000000"
     borderopacity="0.25"
     inkscape:showpageshadow="2"
     inkscape:pageopacity="0.0"
     inkscape:pagecheckerboard="0"
     inkscape:deskcolor="#d1d1d1"
     inkscape:document-units="mm"
     showgrid="false"
     inkscape:zoom="2.1745121"
     inkscape:cx="75.649155"
     inkscape:cy="13.336325"
     inkscape:window-width="1920"
     inkscape:window-height="1017"
     inkscape:window-x="-8"
     inkscape:window-y="-8"
     inkscape:window-maximized="1"
     inkscape:current-layer="layer1" /><defs
     id="defs2" /><g
     inkscape:label="Katman 1"
     inkscape:groupmode="layer"
     id="layer1"
     transform="translate(-7.038468,-6.2203)"><text
       xml:space="preserve"
       style="font-style:normal;font-variant:normal;font-weight:normal;font-stretch:normal;font-size:14.1111px;font-family:'Segoe Print';-inkscape-font-specification:'Segoe Print';text-align:center;text-anchor:middle;fill:#000000;fill-opacity:1;stroke:none;stroke-width:0.665001"
       x="71.238701"
       y="175.68771"
       id="text2512"><tspan
         sodipodi:role="line"
         id="tspan2510"
         style="font-style:normal;font-variant:normal;font-weight:normal;font-stretch:normal;font-family:'Segoe Print';-inkscape-font-specification:'Segoe Print';fill:#000000;fill-opacity:1;stroke-width:0.665"
         x="71.238701"
         y="175.68771" /></text><g
       id="g3660"
       transform="translate(-23.848262,-132.86889)"><path
         style="fill:#000000;stroke-width:0.16752"
         d="m 64.203,154.44936 c -0.60999,-0.20793 -1.38783,-0.59067 -1.728532,-0.85053 -0.563586,-0.42987 -1.604218,-1.6845 -1.599892,-1.9289 0.001,-0.0553 0.570205,-0.42449 1.264949,-0.82046 l 1.263171,-0.71996 0.320916,0.38492 c 0.176504,0.2117 0.323424,0.43828 0.32649,0.50349 0.003,0.0652 0.332578,0.31022 0.732251,0.54445 0.548792,0.32161 0.960904,0.42586 1.683518,0.42586 1.146237,0 1.827026,-0.3151 2.098901,-0.97147 0.452816,-1.09319 -0.141979,-1.76621 -2.449326,-2.77142 -3.22046,-1.40303 -4.267092,-2.62702 -4.267092,-4.9902 0,-1.47678 0.599237,-2.66192 1.698978,-3.36015 0.982424,-0.62375 1.68014,-0.80373 3.120026,-0.80486 1.786688,-10e-4 3.282293,0.82536 4.146342,2.29209 0.07465,0.12673 -0.321474,0.48285 -1.090405,0.98027 l -1.207657,0.78122 -0.33254,-0.4565 c -0.369945,-0.50785 -1.206616,-0.9177 -1.873409,-0.9177 -0.524756,0 -1.416414,0.83058 -1.416414,1.31939 0,0.88519 0.357433,1.1966 2.624611,2.2867 3.43541,1.65181 4.338092,2.71987 4.318503,5.10971 -0.01671,2.04035 -1.050282,3.39576 -3.065923,4.02068 -1.451258,0.44994 -3.142901,0.42897 -4.567466,-0.0566 z m 34.380595,0.12193 c -3.696168,-0.99403 -6.127683,-4.42939 -5.818993,-8.22136 0.353036,-4.3368 3.575035,-7.26074 8.000868,-7.26074 2.98141,0 5.45661,1.39036 6.89667,3.87397 0.73648,1.27017 0.99746,2.50819 0.92715,4.39809 -0.0572,1.53886 -0.12002,1.81519 -0.67977,2.99312 -0.68608,1.44379 -1.7579,2.63698 -3.04772,3.39286 -1.72992,1.01381 -4.31229,1.35276 -6.278205,0.82406 z m 4.085425,-2.98298 c 1.03523,-0.49024 1.79118,-1.26932 2.29397,-2.36417 0.56019,-1.21983 0.54855,-3.50975 -0.0238,-4.67294 -0.85765,-1.74315 -2.30772,-2.66344 -4.19669,-2.66344 -1.891216,0 -3.286316,0.83078 -4.161735,2.47831 -0.400294,0.75335 -0.445058,1.01452 -0.445058,2.59656 0,1.51268 0.05375,1.85961 0.383851,2.47783 0.524106,0.98154 1.583993,1.97222 2.430965,2.27225 1.121057,0.39712 2.730897,0.34326 3.718457,-0.1244 z m 11.55887,3.14756 c -1.63796,-0.40215 -2.95689,-1.22278 -3.75786,-2.33811 l -0.52429,-0.73005 0.38212,-0.23409 c 0.21016,-0.12876 0.78588,-0.47548 1.27936,-0.7705 l 0.89726,-0.53639 0.60026,0.70127 c 0.72368,0.84545 1.4155,1.16023 2.55001,1.16023 1.36331,0 2.17482,-0.58129 2.17482,-1.55784 0,-0.74865 -0.6538,-1.29123 -2.74938,-2.28168 -1.11618,-0.52755 -2.32304,-1.21699 -2.68192,-1.5321 -1.72082,-1.51089 -1.94836,-4.41185 -0.47406,-6.04372 0.90405,-1.00067 1.73263,-1.36107 3.33107,-1.44884 1.84165,-0.10113 2.86744,0.24234 3.94655,1.32145 0.44302,0.44302 0.8055,0.88387 0.8055,0.97966 0,0.0958 -0.52076,0.52044 -1.15725,0.94368 l -1.15724,0.76951 -0.58884,-0.64254 c -0.53378,-0.58245 -0.66794,-0.64254 -1.43466,-0.64254 -0.65129,0 -0.93165,0.0858 -1.21902,0.3732 -0.47457,0.47457 -0.4977,1.39904 -0.0474,1.89657 0.17917,0.19797 1.30615,0.83079 2.50442,1.40625 2.60146,1.24936 3.47089,2.01761 3.88141,3.42976 0.68225,2.34685 -0.27214,4.45683 -2.45445,5.42638 -0.7399,0.32871 -3.30369,0.54751 -4.10636,0.35044 z m -83.34116,-7.77324 v -7.70592 h 1.617316 1.617317 l -0.09547,3.81108 -0.09547,3.81108 0.42701,-0.8376 c 0.234855,-0.46068 1.414435,-2.17566 2.621288,-3.81108 l 2.194278,-2.97348 h 1.804395 1.804394 l -1.953718,2.63844 c -1.074546,1.45114 -2.235979,3.00998 -2.580962,3.46409 l -0.627242,0.82564 1.502303,2.18972 c 0.826266,1.20433 2.139568,3.11316 2.918448,4.24183 l 1.416146,2.05211 h -1.923767 -1.923768 l -2.041791,-3.03841 -2.041791,-3.0384 -0.721586,0.81876 -0.721586,0.81877 -0.0064,2.21964 -0.0064,2.21964 h -1.59144 -1.591439 z m 17.812201,7.38196 c -1.056175,-0.38022 -2.102158,-1.08373 -3.025075,-2.0346 -2.835678,-2.92156 -2.731918,-8.0433 0.222804,-10.99803 0.912713,-0.91271 2.715574,-1.89479 3.877942,-2.11244 l 0.544439,-0.10195 v 1.49018 1.49018 l -0.498175,0.10942 c -0.764607,0.16793 -2.079477,1.45245 -2.525263,2.46695 -0.504532,1.1482 -0.543619,2.9985 -0.09103,4.30879 0.371134,1.07445 1.563666,2.36414 2.498663,2.70224 l 0.6158,0.22268 v 1.39027 c 0,1.33187 -0.01583,1.39001 -0.37692,1.38422 -0.207306,-0.003 -0.766742,-0.14638 -1.24319,-0.31791 z m 4.132909,-1.0449 v -1.41168 l 0.6158,-0.22268 c 0.934649,-0.33797 2.127454,-1.62776 2.499039,-2.70224 0.483055,-1.3968 0.414635,-3.22248 -0.165182,-4.40759 -0.511695,-1.04587 -1.715864,-2.20658 -2.458375,-2.36967 l -0.491282,-0.1079 v -1.49437 c 0,-0.8219 0.02975,-1.49437 0.06611,-1.49437 0.455383,0 2.444866,0.81075 3.221941,1.313 3.833267,2.47756 4.583065,8.33814 1.507231,11.7808 -1.028194,1.15082 -2.855069,2.21812 -4.151548,2.42544 l -0.643737,0.10294 z m 21.610072,-6.43478 c 0,-4.292 0.06343,-7.77851 0.140976,-7.7478 0.07753,0.0307 1.790181,1.86505 3.805884,4.07632 2.015709,2.21126 3.745908,4.02048 3.844894,4.02048 0.09899,0 1.821181,-1.82806 3.827102,-4.06236 2.005915,-2.2343 3.717632,-4.06236 3.803809,-4.06236 0.09499,0 0.156685,3.0673 0.156685,7.78968 v 7.78967 h -1.507679 -1.507679 v -4.21825 -4.21825 l -0.661258,0.88628 c -0.802779,1.07596 -4.02215,4.70239 -4.174567,4.70239 -0.140039,0 -3.063396,-3.28105 -4.016426,-4.50786 -0.400149,-0.5151 -0.742269,-0.952 -0.760276,-0.97089 -0.01798,-0.0189 -0.0019,1.84685 0.0359,4.14611 l 0.06866,4.18047 h -1.528022 -1.52802 z"
         id="path3632" /><path
         style="fill:#000000;stroke-width:0.233615"
         d="m 80.179803,163.22369 c -0.403349,-0.16044 -0.525634,-0.39689 -0.525634,-1.01636 0,-1.01628 0.827415,-2.03821 2.180687,-2.69331 0.963261,-0.4663 1.027703,-0.56627 1.679121,-2.60463 0.372585,-1.16584 0.76953,-2.17664 0.882117,-2.24622 0.507338,-0.31356 0.595729,0.36948 0.188045,1.45301 -0.240015,0.63789 -0.507865,1.49333 -0.595238,1.90098 -0.142957,0.667 -0.110622,0.72858 0.322969,0.61519 0.265012,-0.0693 0.481827,-0.0201 0.481827,0.10954 0,0.12955 -0.242654,0.29643 -0.539229,0.37088 -0.409228,0.1027 -0.638533,0.45035 -0.951107,1.44196 -0.650405,2.06331 -1.919686,3.14787 -3.123558,2.66896 z m 2.132846,-2.32461 c 0.500499,-1.25086 0.494633,-1.26388 -0.349659,-0.77453 -0.818851,0.47457 -1.273847,1.25672 -1.058115,1.8189 0.229516,0.5981 0.970562,0.0484 1.407774,-1.04437 z m -10.915606,-0.19569 c -1.191517,-1.31659 0.511831,-2.9269 3.831941,-3.62258 1.195211,-0.25045 1.410198,-0.40202 2.705562,-1.90737 0.773949,-0.89943 1.533742,-1.87185 1.688429,-2.16095 0.305886,-0.57168 1.199274,-0.72432 1.199274,-0.20491 0,0.1764 -0.197299,0.78088 -0.438438,1.3433 -0.241137,0.56241 -0.501326,1.36421 -0.578197,1.7818 -0.119189,0.64749 -0.07184,0.75925 0.321625,0.75925 0.305647,0 0.46139,0.15771 0.46139,0.46723 0,0.34263 -0.155743,0.46723 -0.584036,0.46723 -0.552182,0 -0.584038,0.07 -0.584038,1.28488 0,1.22703 -0.02728,1.28489 -0.605659,1.28489 -0.588104,0 -0.603338,-0.0373 -0.525634,-1.2852 0.07833,-1.25803 0.0668,-1.2852 -0.545874,-1.28489 -0.462845,2.4e-4 -0.98015,0.37378 -1.985728,1.43389 -1.885847,1.98812 -3.498611,2.59594 -4.360617,1.64343 z m 3.557162,-1.82703 c 1.164182,-1.172 1.068839,-1.42253 -0.391706,-1.02924 -1.915829,0.51589 -2.988642,2.11542 -1.418812,2.11542 0.560098,0 0.98449,-0.25461 1.810518,-1.08618 z m 3.684889,-2.54492 c 0.217531,-0.56689 -0.03732,-0.62178 -0.502127,-0.10817 -0.387045,0.42768 -0.389683,0.46866 -0.03017,0.46866 0.216679,0 0.456213,-0.16222 0.532297,-0.36049 z m 7.244803,3.70898 c -0.379732,-0.37974 -0.12627,-1.71235 0.457687,-2.40635 0.719885,-0.85553 2.156911,-1.64298 2.998306,-1.64298 0.883346,0 0.717533,0.35606 -0.309028,0.66362 -1.112521,0.33333 -2.134622,1.3172 -2.134622,2.0548 0,0.91943 0.81089,0.66555 1.895351,-0.59344 1.089294,-1.26461 1.85765,-1.41481 1.252663,-0.24489 -0.502455,0.97165 -0.438764,1.34668 0.222063,1.3074 0.484973,-0.0288 0.645733,-0.26924 1.114528,-1.66674 0.383854,-1.14428 0.678035,-1.65811 0.982914,-1.71683 0.359359,-0.0692 0.409535,0.0181 0.288171,0.50167 -0.0808,0.322 -0.220385,0.77686 -0.310159,1.01078 -0.08974,0.23393 0.228684,0.0335 0.707647,-0.44553 0.618092,-0.61809 1.074119,-0.87084 1.571239,-0.87084 0.948688,0 1.072177,0.47927 0.478872,1.85845 -0.599251,1.39302 -0.606875,1.50874 -0.08518,1.2934 0.809412,-0.33412 1.651719,-0.33013 1.933306,0.009 0.412308,0.49681 0.928476,0.42112 0.928476,-0.13612 0,-0.26364 -0.234071,-0.88609 -0.520181,-1.3832 -0.510325,-0.88671 -0.511857,-0.91304 -0.08062,-1.38956 0.331325,-0.36611 0.721724,-0.48574 1.585235,-0.48574 0.70429,0 1.090033,0.09 1.00128,0.23362 -0.07943,0.12848 -0.328352,0.2336 -0.553178,0.2336 -0.224835,0 -0.604258,0.14294 -0.843183,0.31764 -0.420907,0.30778 -0.418664,0.34308 0.07214,1.13725 0.599534,0.97005 0.643354,1.64556 0.13944,2.14947 -0.523887,0.52389 -1.806569,0.4666 -2.32274,-0.10375 l -0.426106,-0.47085 -0.501205,0.47085 c -0.605717,0.56904 -1.482022,0.61419 -1.684414,0.0868 -0.08107,-0.21126 0.02936,-0.86102 0.245418,-1.44396 0.812915,-2.19335 -0.646618,-1.62892 -1.721348,0.66569 -0.361584,0.77197 -0.68793,1.16235 -0.971715,1.16235 -0.235013,0 -0.4273,-0.16366 -0.4273,-0.36367 0,-0.32915 -0.04925,-0.32915 -0.519208,0 -0.730801,0.51187 -1.520589,0.4621 -1.701294,-0.10722 l -0.149452,-0.47088 -0.598631,0.47088 c -0.580693,0.45676 -1.698732,0.63162 -2.015201,0.31515 z m -1.054774,-6.12504 c -0.472875,-0.29966 -0.221904,-1.06748 0.376839,-1.15288 0.627796,-0.0896 0.935984,0.51066 0.519728,1.01222 -0.330386,0.39809 -0.458617,0.41821 -0.896567,0.14066 z"
         id="path3646" /></g><text
       xml:space="preserve"
       style="font-style:normal;font-variant:normal;font-weight:normal;font-stretch:normal;font-size:14.1111px;font-family:'Neutra Text';-inkscape-font-specification:'Neutra Text';text-align:center;text-anchor:middle;fill:#000000;fill-opacity:1;stroke:none;stroke-width:0.665001"
       x="40.609501"
       y="39.74913"
       id="text3650"><tspan
         sodipodi:role="line"
         id="tspan3648"
         style="font-style:normal;font-variant:normal;font-weight:normal;font-stretch:normal;font-family:'Neutra Text';-inkscape-font-specification:'Neutra Text';stroke-width:0.665"
         x="40.609501"
         y="39.74913" /></text></g></svg>
